<?xml version="1.0" encoding="utf-8"?>
<!-- Generator: Adobe Illustrator 25.4.1, SVG Export Plug-In . SVG Version: 6.00 Build 0)  -->
<svg version="1.1" xmlns="http://www.w3.org/2000/svg" xmlns:xlink="http://www.w3.org/1999/xlink" x="0px" y="0px"
	 viewBox="0 0 1080 1080" style="enable-background:new 0 0 1080 1080;" xml:space="preserve">
<style type="text/css">
	.st0{fill:#FFFFFF;}
	.st1{fill:none;stroke:#FFFFFF;stroke-width:3;stroke-linecap:round;stroke-miterlimit:10;}
	.st2{fill:none;stroke:#FFFFFF;stroke-width:3;stroke-miterlimit:10;}
	.st3{fill:#FFFFFF;stroke:#FFFFFF;stroke-width:0.5;stroke-miterlimit:10;}
	.st4{fill:none;stroke:#000000;stroke-width:3;stroke-linecap:round;stroke-miterlimit:10;}
	.st5{fill:none;stroke:#000000;stroke-width:3;stroke-miterlimit:10;}
	.st6{stroke:#000000;stroke-width:0.5;stroke-miterlimit:10;}
</style>
<g id="Layer_5">
</g>
<g id="Layer_4">
	<rect class="st0" width="1079.5" height="1080"/>
</g>
<g id="Layer_3">
</g>
<g id="Layer_2">
</g>
<g id="Layer_1">
	<path d="M178.21,441.87c0,0-23.33-29.06-31.36-34.58c-8.03-5.52,8-13.1,31.36,17.29c0,0-27.34-34.57-14.04-36.47
		c13.3-1.9,21.33,35.24,21.33,35.24s-6.53-37.82,3.01-40.24c9.54-2.42,13.05,38.23,3.01,56.81L178.21,441.87z"/>
	<polyline class="st4" points="296.03,589.65 273.36,586.02 201.44,611.34 119.43,586.02 94.31,589.04 	"/>
	<path class="st5" d="M80.5,585.2c0-1.52-0.67-17.06,8.86-22.47c8.04-4.56,20.76-4.83,39.45,12.34c0,0,35.22-75.13,67.59-82.28
		c0,0,27.65-1.56,70.28,79.6c0,0,27.44-21.92,43.97-7.92c6.27,5.31,3.89,6.73,3.89,17.68"/>
	<path class="st5" d="M301.07,542.87c0,0-21.44,17.49-46.56,10.14"/>
	<path class="st5" d="M94.57,544.09c0,0,21.71,16.26,46.83,8.91"/>
	<g>
		<g>
			<path d="M363.23,594.05l73.26-106.19h18.87L382.1,594.05H363.23z M363.23,604.97v-10.92l13.69-3.7h76.96v14.62H363.23z
				 M366.93,491.56v-14.62h88.43v10.92l-13.88,3.7H366.93z"/>
			<path d="M509.93,606.82c-8.14,0-15.45-2-21.92-6.01c-6.47-4.01-11.63-9.43-15.45-16.28c-3.82-6.85-5.74-14.58-5.74-23.22
				c0-8.63,1.91-16.37,5.74-23.22c3.82-6.85,8.97-12.3,15.45-16.37c6.48-4.07,13.78-6.1,21.92-6.1c6.66,0,12.61,1.36,17.85,4.07
				c5.24,2.71,9.5,6.51,12.76,11.38c3.27,4.87,5.09,10.45,5.46,16.74v26.64c-0.5,6.41-2.34,12.06-5.55,16.93
				c-3.21,4.87-7.43,8.67-12.67,11.38C522.54,605.46,516.59,606.82,509.93,606.82z M512.52,592.2c8.51,0,15.35-2.87,20.54-8.6
				c5.18-5.73,7.77-13.16,7.77-22.29c0-6.17-1.17-11.59-3.51-16.28c-2.34-4.69-5.67-8.35-9.99-11.01
				c-4.32-2.65-9.31-3.98-14.98-3.98c-5.8,0-10.92,1.33-15.36,3.98c-4.44,2.65-7.93,6.32-10.45,11.01
				c-2.53,4.69-3.79,10.05-3.79,16.09c0,6.17,1.26,11.56,3.79,16.19c2.53,4.62,6.04,8.26,10.54,10.92
				C501.58,590.88,506.73,592.2,512.52,592.2z M539.9,604.97v-23.5l2.96-21.46l-2.96-21.09v-21.46h15.54v87.51H539.9z"/>
			<path d="M569.69,596.64l53.28-70.86h18.13l-53.28,70.86H569.69z M569.69,604.97v-8.33l13.69-5.55h56.61v13.88H569.69z
				 M573.02,531.34v-13.88h68.08v8.32l-14.25,5.55H573.02z"/>
			<path d="M691.04,606.82c-7.15,0-13.57-1.64-19.24-4.9c-5.67-3.27-10.08-7.77-13.23-13.5c-3.14-5.74-4.72-12.42-4.72-20.07v-50.88
				h15.35v50.14c0,5.06,0.86,9.41,2.59,13.04c1.73,3.64,4.25,6.48,7.58,8.51c3.33,2.03,7.22,3.05,11.66,3.05
				c6.91,0,12.3-2.19,16.19-6.57c3.88-4.38,5.83-10.39,5.83-18.04v-50.14h15.36v50.88c0,7.65-1.57,14.37-4.72,20.17
				c-3.14,5.8-7.52,10.3-13.13,13.5C704.95,605.21,698.45,606.82,691.04,606.82z"/>
			<path d="M750.99,604.97V476.95h16.09v128.02H750.99z M761.53,604.97v-14.06h39.41c7.77,0,13.88-2.25,18.31-6.75
				c4.44-4.5,6.66-9.96,6.66-16.37c0-4.32-0.99-8.23-2.96-11.75c-1.97-3.51-4.78-6.29-8.42-8.33c-3.64-2.04-7.93-3.05-12.86-3.05
				h-40.15v-13.88h37.74c6.41,0,11.53-1.73,15.35-5.18c3.82-3.45,5.74-8.39,5.74-14.8c0-6.29-2.01-11.16-6.01-14.61
				c-4.01-3.45-9.34-5.18-16-5.18h-36.82v-14.06h37.18c8.14,0,15.01,1.48,20.63,4.44c5.61,2.96,9.87,6.88,12.76,11.75
				c2.9,4.87,4.35,10.33,4.35,16.37c0,7.03-1.88,13.11-5.64,18.22c-3.76,5.12-9.22,9.1-16.37,11.93l1.29-4.99
				c8.26,2.84,14.71,7.22,19.33,13.14s6.94,12.95,6.94,21.09c0,6.78-1.64,12.89-4.9,18.32c-3.27,5.43-8.05,9.74-14.34,12.95
				c-6.29,3.21-13.88,4.81-22.75,4.81H761.53z"/>
			<path d="M899.91,606.82c-8.51,0-16.22-2.04-23.12-6.1c-6.91-4.07-12.37-9.59-16.37-16.56c-4.01-6.97-6.01-14.71-6.01-23.22
				s2-16.19,6.01-23.03c4.01-6.85,9.46-12.27,16.37-16.28c6.91-4.01,14.61-6.01,23.12-6.01c8.51,0,16.22,2.01,23.12,6.01
				c6.91,4.01,12.39,9.43,16.46,16.28c4.07,6.85,6.1,14.52,6.1,23.03c0,8.63-2.04,16.4-6.1,23.31c-4.07,6.91-9.56,12.4-16.46,16.47
				C916.12,604.78,908.42,606.82,899.91,606.82z M899.91,592.02c5.79,0,10.94-1.32,15.45-3.98c4.5-2.65,8.02-6.35,10.54-11.1
				c2.53-4.75,3.79-10.08,3.79-16s-1.29-11.16-3.88-15.72c-2.59-4.56-6.1-8.17-10.54-10.82c-4.44-2.65-9.56-3.98-15.35-3.98
				c-5.67,0-10.76,1.33-15.26,3.98c-4.5,2.65-8.05,6.26-10.64,10.82c-2.59,4.56-3.88,9.8-3.88,15.72c0,6.04,1.29,11.41,3.88,16.09
				c2.59,4.69,6.13,8.36,10.64,11.01C889.15,590.69,894.23,592.02,899.91,592.02z"/>
			<path d="M953.19,531.34v-13.88h58.83v13.88H953.19z M974.83,604.97V480.65h15.54v124.32H974.83z"/>
		</g>
	</g>
	<path class="st5" d="M94.42,559.8V458.32c0-14.02,11.36-18.42,25.38-18.42h156.31c14.02,0,25.38,4.4,25.38,18.42v100.34"/>
	<path class="st4" d="M113.68,625.1c-18.08-0.87-32.74-11.03-32.74-23.56l-0.44-17.21"/>
	<path class="st4" d="M314.54,580.85l-0.77,18.95c0,12.53-14.66,22.69-32.74,23.56l-131.36,0.12"/>
	<polyline class="st4" points="113.56,625.22 114.43,663.5 149.23,623.48 	"/>
	<ellipse cx="266.4" cy="520.91" rx="12.79" ry="19.99"/>
	<path class="st6" d="M223.13,503.94c0,0,48.91-22.02,82.24-4.52c0,0,15.77-7.71-5.86-12.89l15.37-1.57
		c-1.22-0.87-15.57-8.56-43.95-4.61c-10.36,1.44-19.46,3.96-26.21,7.07c-7.82,3.6-19.18,9.99-25.15,17.42L223.13,503.94z"/>
	<path class="st6" d="M168.59,510.13c0,0-46.25-28.07-80.31-13.5c0,0-14.78-8.9,6.8-12.25l-14.9-2.8c0,0,13.7-7.7,43.38-0.98
		c10.02,2.27,18.71,5.5,25.05,9.12c7.35,4.2,17.79,11.79,23.01,19.62L168.59,510.13z"/>
	<ellipse cx="126.95" cy="520.56" rx="12.79" ry="19.99"/>
</g>
</svg>
